<svg xmlns="http://www.w3.org/2000/svg" width="1200" height="800" viewBox="0 0 1200 800">
  <defs><linearGradient id="bg" x2="1" y2="1"><stop stop-color="#020617"/><stop offset=".52" stop-color="#15103b"/><stop offset="1" stop-color="#082455"/></linearGradient><linearGradient id="n"><stop stop-color="#d946ef"/><stop offset=".5" stop-color="#8b5cf6"/><stop offset="1" stop-color="#3b82f6"/></linearGradient><filter id="g"><feGaussianBlur stdDeviation="35"/></filter></defs>
  <rect width="1200" height="800" rx="40" fill="url(#bg)"/><circle cx="670" cy="360" r="310" fill="#7c3aed" opacity=".23" filter="url(#g)"/>
  <g opacity=".2" stroke="#8b5cf6"><path d="M0 100h1200M0 200h1200M0 300h1200M0 400h1200M0 500h1200M0 600h1200M100 0v800M250 0v800M400 0v800M550 0v800M700 0v800M850 0v800M1000 0v800"/></g>
  <rect x="255" y="130" width="690" height="440" rx="28" fill="#070b1c" stroke="url(#n)" stroke-width="10"/><rect x="290" y="165" width="620" height="370" rx="13" fill="#0d1535"/>
  <path d="M335 470 470 300l125 100 125-145 150 215Z" fill="url(#n)" opacity=".84"/><circle cx="775" cy="275" r="70" fill="#f0abfc" opacity=".7"/>
  <path d="M170 590h860l-80 90H250Z" fill="#1e293b" stroke="#8b5cf6" stroke-width="7"/><rect x="510" y="612" width="180" height="16" rx="8" fill="#64748b"/>
  <g transform="translate(870 470)"><rect width="210" height="185" rx="24" fill="#080d20" stroke="#60a5fa" stroke-width="7"/><circle cx="105" cy="82" r="52" fill="none" stroke="url(#n)" stroke-width="16"/><circle cx="105" cy="82" r="22" fill="#111827"/><rect x="45" y="148" width="120" height="14" rx="7" fill="url(#n)"/></g>
  <text x="600" y="750" text-anchor="middle" fill="#f8fafc" font-family="Segoe UI,Arial" font-size="48" font-weight="800" letter-spacing="7">UPGRADE YOUR SETUP</text>
</svg>
